{"title":"Black Sails S01E04 x264 AAC E-Subs [GWC].mp4","uid":9624956,"size":215465665,"categoryP":"video","categoryS":"tv_shows","magnet":"?xt=urn:btih:00ada66f2569d172c34e5184a7e1edda29103ca4&amp;dn=Black+Sails+S01E04+x264+AAC+E-Subs+%5BGWC%5D.mp4&amp;tr=udp%3A%2F%2Ftracker.openbittorrent.com%3A80&amp;tr=udp%3A%2F%2Fopen.demonii.com%3A1337&amp;tr=udp%3A%2F%2Ftracker.coppersurfer.tk%3A6969&amp;tr=udp%3A%2F%2Fexodus.desync.com%3A6969","seeders":1,"leechers":0,"uploader":"canc232","files":1,"time":1392574084,"description":"Black Sails S01E04 x264 AAC E-Subs [GWC] \n\n\nSCREENS: &lt;a href=&quot;\nhttp://i.imgur.com/31zdggl.jpg&quot; rel=&quot;nofollow&quot; target=&quot;_NEW&quot;&gt;\nhttp://i.imgur.com/31zdggl.jpg&lt;/a&gt; &lt;a href=&quot;\nhttp://i.imgur.com/cFZKvef.jpg&quot; rel=&quot;nofollow&quot; target=&quot;_NEW&quot;&gt;\nhttp://i.imgur.com/cFZKvef.jpg&lt;/a&gt; &lt;a href=&quot;\nhttp://i.imgur.com/IQFcStV.jpg&quot; rel=&quot;nofollow&quot; target=&quot;_NEW&quot;&gt;\nhttp://i.imgur.com/IQFcStV.jpg&lt;/a&gt;\n\n\nMEDIA INFO :\nGeneral \nFormat : MPEG-4 \nFile size : 205 MiB \nDuration : 58mn 39s \nOverall bit rate mode : Variable \nOverall bit rate : 490 Kbps \n\nVideo \nFormat : AVC \nFormat profile : &lt;a class=&quot;__cf_email__&quot; href=&quot;/cdn-cgi/l/email-protection&quot; data-cfemail=&quot;96defff1fed6daa5b8a6&quot;&gt;[email&amp;#160;protected]&lt;/a&gt;&lt;script cf-hash='f9e31' type=&quot;text/javascript&quot;&gt;\n/* &lt;![CDATA[ */!function(){try{var t=&quot;currentScript&quot;in document?document.currentScript:function(){for(var t=document.getElementsByTagName(&quot;script&quot;),e=t.length;e--;)if(t[e].getAttribute(&quot;cf-hash&quot;))return t[e]}();if(t&amp;&amp;t.previousSibling){var e,r,n,i,c=t.previousSibling,a=c.getAttribute(&quot;data-cfemail&quot;);if(a){for(e=&quot;&quot;,r=parseInt(a.substr(0,2),16),n=2;a.length-n;n+=2)i=parseInt(a.substr(n,2),16)^r,e+=String.fromCharCode(i);e=document.createTextNode(e),c.parentNode.replaceChild(e,c)}}}catch(u){}}();/* ]]&gt; */&lt;/script&gt; \nFormat settings, CABAC : Yes \nFormat settings, ReFrames : 4 frames  \nDuration : 58mn 39s \nBit rate : 427 Kbps \nMaximum bit rate : 2 101 Kbps \nWidth : 720 pixels \nHeight : 404 pixels \nDisplay aspect ratio : 16:9 \nFrame rate : 23.976 fps \nStream size : 179 MiB (87%) \nTitle : Black Sails S01E04 x264 AAC E-Subs [GWC] \nWriting library : x264 core \n\nAudio \nFormat : AAC \nFormat profile : HE-AAC / LC \nDuration : 58mn 39s \nBit rate mode : Variable \nChannel(s) : 2 channels \nSampling rate : 48.0 KHz / 24.0 KHz \nStream size : 25.2 MiB (12%) \nLanguage : English \n\nText \nFormat : Timed Text \nTitle : English Subtitle by MemoryOnSmells \nLanguage : English ","torrent":{"xt":"urn:btih:00ada66f2569d172c34e5184a7e1edda29103ca4","amp;dn":"Black+Sails+S01E04+x264+AAC+E-Subs+%5BGWC%5D.mp4","amp;tr":["udp%3A%2F%2Ftracker.openbittorrent.com%3A80","udp%3A%2F%2Fopen.demonii.com%3A1337","udp%3A%2F%2Ftracker.coppersurfer.tk%3A6969","udp%3A%2F%2Fexodus.desync.com%3A6969"],"infoHash":"00ada66f2569d172c34e5184a7e1edda29103ca4","infoHashBuffer":{"type":"Buffer","data":[0,173,166,111,37,105,209,114,195,78,81,132,167,225,237,218,41,16,60,164]},"announce":[],"urlList":[]}}